ISO-10303-21;
HEADER;
FILE_DESCRIPTION (( 'STEP AP203' ),
    '1' );
FILE_NAME ('98455A367_Internal Retaining Ring.STEP',
    '2026-01-08T07:12:50',
    ( 'McMaster Carr Supply' ),
    ( 'McMaster Carr Supply' ),
    'SwSTEP 2.0',
    'SolidWorks 2024',
    '' );
FILE_SCHEMA (( 'CONFIG_CONTROL_DESIGN' ));
ENDSEC;

DATA;
#1 = ORIENTED_EDGE ( 'NONE', *, *, #746, .T. ) ;
#2 = CC_DESIGN_APPROVAL ( #232, ( #347 ) ) ;
#3 = DIRECTION ( 'NONE',  ( 0.000000000000000000, 0.000000000000000000, 1.000000000000000000 ) ) ;
#4 = EDGE_CURVE ( 'NONE', #407, #235, #216, .T. ) ;
#5 = CYLINDRICAL_SURFACE ( 'NONE', #679, 1.249999999999999334 ) ;
#6 = AXIS2_PLACEMENT_3D ( 'NONE', #24, #397, #680 ) ;
#7 = CARTESIAN_POINT ( 'NONE',  ( 0.000000000000000000, -1.500202718162663817, -1.000000000000000666 ) ) ;
#8 = CYLINDRICAL_SURFACE ( 'NONE', #764, 30.10000000000000142 ) ;
#9 = ADVANCED_FACE ( 'NONE', ( #483 ), #8, .T. ) ;
#10 = ORIENTED_EDGE ( 'NONE', *, *, #613, .F. ) ;
#11 = DIRECTION ( 'NONE',  ( -0.000000000000000000, -0.000000000000000000, -1.000000000000000000 ) ) ;
#12 = DIRECTION ( 'NONE',  ( 0.000000000000000000, 0.000000000000000000, 1.000000000000000000 ) ) ;
#13 = VECTOR ( 'NONE', #576, 1000.000000000000000 ) ;
#14 = EDGE_CURVE ( 'NONE', #215, #725, #238, .T. ) ;
#15 = VECTOR ( 'NONE', #762, 1000.000000000000000 ) ;
#16 = DIRECTION ( 'NONE',  ( 0.000000000000000000, 0.000000000000000000, 1.000000000000000000 ) ) ;
#17 = DIRECTION ( 'NONE',  ( -1.000000000000000000, 0.000000000000000000, 0.000000000000000000 ) ) ;
#18 = ORIENTED_EDGE ( 'NONE', *, *, #94, .T. ) ;
#19 = CC_DESIGN_DATE_AND_TIME_ASSIGNMENT ( #698, #409, ( #108 ) ) ;
#20 = DIRECTION ( 'NONE',  ( 0.000000000000000000, 0.000000000000000000, 1.000000000000000000 ) ) ;
#21 = CIRCLE ( 'NONE', #393, 26.50020271816266515 ) ;
#22 = DIRECTION ( 'NONE',  ( -0.000000000000000000, -0.000000000000000000, -1.000000000000000000 ) ) ;
#23 = ORIENTED_EDGE ( 'NONE', *, *, #469, .F. ) ;
#24 = CARTESIAN_POINT ( 'NONE',  ( 0.000000000000000000, -1.500202718162663817, -1.000000000000000666 ) ) ;
#25 = FACE_OUTER_BOUND ( 'NONE', #315, .T. ) ;
#26 = EDGE_LOOP ( 'NONE', ( #224, #700, #666, #285 ) ) ;
#27 = AXIS2_PLACEMENT_3D ( 'NONE', #732, #22, #737 ) ;
#28 = CARTESIAN_POINT ( 'NONE',  ( 12.65028919506822547, -22.97729109944883774, -1.000000000000000666 ) ) ;
#29 = APPROVAL_PERSON_ORGANIZATION ( #43, #232, #294 ) ;
#30 = CARTESIAN_POINT ( 'NONE',  ( 0.000000000000000000, -1.500202718162663817, -1.000000000000000666 ) ) ;
#31 = ORIENTED_EDGE ( 'NONE', *, *, #408, .T. ) ;
#32 = CARTESIAN_POINT ( 'NONE',  ( -11.60794697117946939, -27.77166842511061162, -1.000000000000000666 ) ) ;
#33 = DIRECTION ( 'NONE',  ( -0.000000000000000000, -0.000000000000000000, -1.000000000000000000 ) ) ;
#34 = EDGE_CURVE ( 'NONE', #213, #87, #252, .T. ) ;
#35 = EDGE_LOOP ( 'NONE', ( #578, #204 ) ) ;
#36 = CALENDAR_DATE ( 2026, 8, 1 ) ;
#37 = CARTESIAN_POINT ( 'NONE',  ( -1.734723475976807094E-15, -2.602085213965210642E-15, 0.9999999999999993339 ) ) ;
#38 = ORIENTED_EDGE ( 'NONE', *, *, #463, .T. ) ;
#39 = PERSON_AND_ORGANIZATION_ROLE ( 'design_owner' ) ;
#40 = CIRCLE ( 'NONE', #332, 1.249999999999999334 ) ;
#41 = CARTESIAN_POINT ( 'NONE',  ( -12.65028919506822547, -22.97729109944883774, -1.000000000000000666 ) ) ;
#42 = ORIENTED_EDGE ( 'NONE', *, *, #583, .T. ) ;
#43 = PERSON_AND_ORGANIZATION ( #466, #82 ) ;
#44 = LINE ( 'NONE', #169, #121 ) ;
#45 = ORIENTED_EDGE ( 'NONE', *, *, #705, .T. ) ;
#46 = CIRCLE ( 'NONE', #196, 26.50020271816266515 ) ;
#47 = DIRECTION ( 'NONE',  ( -1.000000000000000000, 0.000000000000000000, 0.000000000000000000 ) ) ;
#48 = EDGE_LOOP ( 'NONE', ( #379, #250, #650, #122 ) ) ;
#49 = DATE_TIME_ROLE ( 'creation_date' ) ;
#50 = CARTESIAN_POINT ( 'NONE',  ( 15.02426536691825376, -15.47671285650354100, -1.000000000000000666 ) ) ;
#51 = CIRCLE ( 'NONE', #106, 26.50020271816266515 ) ;
#52 = CIRCLE ( 'NONE', #240, 1.249999999999999334 ) ;
#53 = ORIENTED_EDGE ( 'NONE', *, *, #88, .F. ) ;
#54 = ADVANCED_FACE ( 'NONE', ( #665 ), #131, .T. ) ;
#55 = LOCAL_TIME ( 1, 12, 50.00000000000000000, #523 ) ;
#56 = CYLINDRICAL_SURFACE ( 'NONE', #113, 2.349999999999999645 ) ;
#57 = ORIENTED_EDGE ( 'NONE', *, *, #555, .F. ) ;
#58 = CC_DESIGN_DATE_AND_TIME_ASSIGNMENT ( #754, #49, ( #588 ) ) ;
#59 = AXIS2_PLACEMENT_3D ( 'NONE', #596, #11, #367 ) ;
#60 = DIRECTION ( 'NONE',  ( -0.000000000000000000, -0.000000000000000000, -1.000000000000000000 ) ) ;
#61 = FACE_OUTER_BOUND ( 'NONE', #675, .T. ) ;
#62 = ADVANCED_FACE ( 'NONE', ( #490 ), #5, .F. ) ;
#63 = DIRECTION ( 'NONE',  ( 1.000000000000000000, 0.000000000000000000, 0.000000000000000000 ) ) ;
#64 = CARTESIAN_POINT ( 'NONE',  ( -11.60794697117946761, -27.77166842511061162, -1.000000000000000666 ) ) ;
#65 = CIRCLE ( 'NONE', #474, 30.10000000000000142 ) ;
#66 = ORIENTED_EDGE ( 'NONE', *, *, #477, .T. ) ;
#67 = APPROVAL_PERSON_ORGANIZATION ( #101, #565, #342 ) ;
#68 = EDGE_CURVE ( 'NONE', #87, #765, #412, .T. ) ;
#69 = LINE ( 'NONE', #548, #558 ) ;
#70 = DIRECTION ( 'NONE',  ( 0.000000000000000000, 0.000000000000000000, 1.000000000000000000 ) ) ;
#71 = ORIENTED_EDGE ( 'NONE', *, *, #513, .T. ) ;
#72 = CIRCLE ( 'NONE', #489, 5.980178705927092331 ) ;
#73 = CARTESIAN_POINT ( 'NONE',  ( 26.50020271816266515, -1.500202718162663817, -1.000000000000000666 ) ) ;
#74 = DIRECTION ( 'NONE',  ( -1.000000000000000000, 0.000000000000000000, 0.000000000000000000 ) ) ;
#75 = ORIENTED_EDGE ( 'NONE', *, *, #711, .T. ) ;
#76 = DIRECTION ( 'NONE',  ( 1.000000000000000000, 0.000000000000000000, 0.000000000000000000 ) ) ;
#77 = DIRECTION ( 'NONE',  ( 0.000000000000000000, 0.000000000000000000, 1.000000000000000000 ) ) ;
#78 = EDGE_CURVE ( 'NONE', #235, #407, #40, .T. ) ;
#79 = ORIENTED_EDGE ( 'NONE', *, *, #618, .F. ) ;
#80 = PRODUCT_DEFINITION_SHAPE ( 'NONE', 'NONE',  #588 ) ;
#81 = DIRECTION ( 'NONE',  ( -1.000000000000000000, 0.000000000000000000, 0.000000000000000000 ) ) ;
#82 = ORGANIZATION ( 'UNSPECIFIED', 'UNSPECIFIED', '' ) ;
#83 = CARTESIAN_POINT ( 'NONE',  ( -9.208318687318017837, -23.82450139987802373, -1.000000000000000666 ) ) ;
#84 = VERTEX_POINT ( 'NONE', #64 ) ;
#85 = CARTESIAN_POINT ( 'NONE',  ( -9.208318687318017837, -23.82450139987802373, 0.9999999999999993339 ) ) ;
#86 = DIRECTION ( 'NONE',  ( 0.9327534075532785129, -0.3605150214592280355, 0.000000000000000000 ) ) ;
#87 = VERTEX_POINT ( 'NONE', #307 ) ;
#88 = EDGE_CURVE ( 'NONE', #768, #663, #493, .T. ) ;
#89 = CARTESIAN_POINT ( 'NONE',  ( 11.60794697117947116, -27.77166842511061517, -1.000000000000000666 ) ) ;
#90 = DIRECTION ( 'NONE',  ( 1.000000000000000000, 0.000000000000000000, 0.000000000000000000 ) ) ;
#91 = VERTEX_POINT ( 'NONE', #674 ) ;
#92 = CIRCLE ( 'NONE', #703, 30.10000000000000142 ) ;
#93 = LINE ( 'NONE', #28, #441 ) ;
#94 = EDGE_CURVE ( 'NONE', #171, #682, #430, .T. ) ;
#95 = FACE_OUTER_BOUND ( 'NONE', #300, .T. ) ;
#96 = ORIENTED_EDGE ( 'NONE', *, *, #335, .T. ) ;
#97 = CALENDAR_DATE ( 2026, 8, 1 ) ;
#98 = DIRECTION ( 'NONE',  ( 1.000000000000000000, 0.000000000000000000, 0.000000000000000000 ) ) ;
#99 = VECTOR ( 'NONE', #139, 1000.000000000000000 ) ;
#100 = VERTEX_POINT ( 'NONE', #497 ) ;
#101 = PERSON_AND_ORGANIZATION ( #466, #82 ) ;
#102 = CARTESIAN_POINT ( 'NONE',  ( -1.734723475976807094E-15, -2.602085213965210642E-15, 0.9999999999999993339 ) ) ;
#103 = UNCERTAINTY_MEASURE_WITH_UNIT (LENGTH_MEASURE( 1.000000000000000082E-05 ), #672, 'distance_accuracy_value', 'NONE');
#104 = ORIENTED_EDGE ( 'NONE', *, *, #689, .T. ) ;
#105 = APPROVAL_DATE_TIME ( #228, #736 ) ;
#106 = AXIS2_PLACEMENT_3D ( 'NONE', #30, #33, #17 ) ;
#107 = DIRECTION ( 'NONE',  ( -1.000000000000000000, 0.000000000000000000, 0.000000000000000000 ) ) ;
#108 = SECURITY_CLASSIFICATION ( '', '', #401 ) ;
#109 = ORIENTED_EDGE ( 'NONE', *, *, #705, .F. ) ;
#110 = PERSON_AND_ORGANIZATION ( #466, #82 ) ;
#111 = FACE_OUTER_BOUND ( 'NONE', #242, .T. ) ;
#112 = EDGE_LOOP ( 'NONE', ( #142, #231, #304, #320, #742, #166, #155, #23, #357, #442, #57, #117, #96, #405, #745 ) ) ;
#113 = AXIS2_PLACEMENT_3D ( 'NONE', #371, #298, #63 ) ;
#114 = APPLICATION_PROTOCOL_DEFINITION ( 'international standard', 'config_control_design', 1994, #383 ) ;
#115 = EDGE_CURVE ( 'NONE', #213, #639, #65, .T. ) ;
#116 = LINE ( 'NONE', #584, #217 ) ;
#117 = ORIENTED_EDGE ( 'NONE', *, *, #538, .F. ) ;
#118 = CARTESIAN_POINT ( 'NONE',  ( -1.734723475976807094E-15, -2.602085213965210642E-15, -1.000000000000000666 ) ) ;
#119 = AXIS2_PLACEMENT_3D ( 'NONE', #288, #406, #464 ) ;
#120 = CC_DESIGN_PERSON_AND_ORGANIZATION_ASSIGNMENT ( #221, #631, ( #108 ) ) ;
#121 = VECTOR ( 'NONE', #587, 1000.000000000000000 ) ;
#122 = ORIENTED_EDGE ( 'NONE', *, *, #485, .F. ) ;
#123 = CARTESIAN_POINT ( 'NONE',  ( 11.60794697117946939, -27.77166842511061517, 0.9999999999999993339 ) ) ;
#124 = DIRECTION ( 'NONE',  ( 0.000000000000000000, 0.000000000000000000, 1.000000000000000000 ) ) ;
#125 = EDGE_CURVE ( 'NONE', #521, #213, #92, .T. ) ;
#126 = CIRCLE ( 'NONE', #59, 26.50020271816266515 ) ;
#127 = CARTESIAN_POINT ( 'NONE',  ( -11.30184039615044078, -27.03931753433215590, 0.9999999999999993339 ) ) ;
#128 = DIRECTION ( 'NONE',  ( 0.000000000000000000, 0.000000000000000000, 1.000000000000000000 ) ) ;
#129 = ORIENTED_EDGE ( 'NONE', *, *, #256, .F. ) ;
#130 = DIRECTION ( 'NONE',  ( 0.000000000000000000, 0.000000000000000000, 1.000000000000000000 ) ) ;
#131 = PLANE ( 'NONE',  #448 ) ;
#132 = AXIS2_PLACEMENT_3D ( 'NONE', #365, #70, #597 ) ;
#133 = CARTESIAN_POINT ( 'NONE',  ( 0.000000000000000000, -1.500202718162663817, 0.9999999999999993339 ) ) ;
#134 = DIRECTION ( 'NONE',  ( 0.000000000000000000, 0.000000000000000000, 1.000000000000000000 ) ) ;
#135 = CARTESIAN_POINT ( 'NONE',  ( -10.15028919506822724, -22.97729109944883774, -1.000000000000000666 ) ) ;
#136 = ADVANCED_FACE ( 'NONE', ( #248 ), #772, .T. ) ;
#137 = CARTESIAN_POINT ( 'NONE',  ( -1.734723475976807094E-15, -2.602085213965210642E-15, -1.000000000000000666 ) ) ;
#138 = EDGE_LOOP ( 'NONE', ( #570, #514, #226, #738 ) ) ;
#139 = DIRECTION ( 'NONE',  ( 0.000000000000000000, 0.000000000000000000, 1.000000000000000000 ) ) ;
#140 = CARTESIAN_POINT ( 'NONE',  ( -9.208318687318017837, -23.82450139987802373, 0.9999999999999993339 ) ) ;
#141 = ADVANCED_FACE ( 'NONE', ( #600 ), #657, .T. ) ;
#142 = ORIENTED_EDGE ( 'NONE', *, *, #125, .F. ) ;
#143 = AXIS2_PLACEMENT_3D ( 'NONE', #774, #182, #612 ) ;
#144 = CARTESIAN_POINT ( 'NONE',  ( 15.02426536691825376, -15.47671285650354100, -1.000000000000000666 ) ) ;
#145 = CYLINDRICAL_SURFACE ( 'NONE', #642, 1.249999999999999334 ) ;
#146 = ORIENTED_EDGE ( 'NONE', *, *, #575, .T. ) ;
#147 = EDGE_CURVE ( 'NONE', #707, #100, #531, .T. ) ;
#148 = DIRECTION ( 'NONE',  ( -1.000000000000000000, 0.000000000000000000, 0.000000000000000000 ) ) ;
#149 = VECTOR ( 'NONE', #262, 1000.000000000000000 ) ;
#150 = CARTESIAN_POINT ( 'NONE',  ( 0.000000000000000000, -1.500202718162663817, -1.000000000000000666 ) ) ;
#151 = EDGE_LOOP ( 'NONE', ( #626, #1, #509, #109 ) ) ;
#152 = CC_DESIGN_PERSON_AND_ORGANIZATION_ASSIGNMENT ( #457, #471, ( #347 ) ) ;
#153 = LINE ( 'NONE', #89, #149 ) ;
#154 = DIRECTION ( 'NONE',  ( 0.000000000000000000, 0.000000000000000000, 1.000000000000000000 ) ) ;
#155 = ORIENTED_EDGE ( 'NONE', *, *, #652, .F. ) ;
#156 = AXIS2_PLACEMENT_3D ( 'NONE', #434, #124, #374 ) ;
#157 = AXIS2_PLACEMENT_3D ( 'NONE', #637, #343, #475 ) ;
#158 = PERSON_AND_ORGANIZATION_ROLE ( 'creator' ) ;
#159 = LINE ( 'NONE', #632, #358 ) ;
#160 = ORIENTED_EDGE ( 'NONE', *, *, #78, .F. ) ;
#161 = COORDINATED_UNIVERSAL_TIME_OFFSET ( 6, 0, .BEHIND. ) ;
#162 = CARTESIAN_POINT ( 'NONE',  ( -9.050289195068227599, -22.97729109944883774, -1.000000000000000666 ) ) ;
#163 = EDGE_CURVE ( 'NONE', #725, #270, #168, .T. ) ;
#164 = ORIENTED_EDGE ( 'NONE', *, *, #481, .T. ) ;
#165 = DIRECTION ( 'NONE',  ( -1.000000000000000000, 0.000000000000000000, 0.000000000000000000 ) ) ;
#166 = ORIENTED_EDGE ( 'NONE', *, *, #236, .F. ) ;
#167 = APPLICATION_PROTOCOL_DEFINITION ( 'international standard', 'config_control_design', 1994, #373 ) ;
#168 = CIRCLE ( 'NONE', #132, 2.349999999999999645 ) ;
#169 = CARTESIAN_POINT ( 'NONE',  ( -26.50020271816266515, -1.500202718162660487, -1.000000000000000666 ) ) ;
#170 = CC_DESIGN_APPROVAL ( #565, ( #108 ) ) ;
#171 = VERTEX_POINT ( 'NONE', #311 ) ;
#172 = ADVANCED_FACE ( 'NONE', ( #61 ), #546, .F. ) ;
#173 =( NAMED_UNIT ( * ) PLANE_ANGLE_UNIT ( ) SI_UNIT ( $, .RADIAN. ) );
#174 = PLANE ( 'NONE',  #591 ) ;
#175 = ORIENTED_EDGE ( 'NONE', *, *, #623, .F. ) ;
#176 = CIRCLE ( 'NONE', #478, 0.7937499999999992895 ) ;
#177 = CARTESIAN_POINT ( 'NONE',  ( -1.734723475976807094E-15, -2.602085213965210642E-15, 0.9999999999999993339 ) ) ;
#178 = VERTEX_POINT ( 'NONE', #562 ) ;
#179 = LINE ( 'NONE', #715, #289 ) ;
#180 = CARTESIAN_POINT ( 'NONE',  ( 11.30184039615044078, -27.03931753433215235, -1.000000000000000666 ) ) ;
#181 = CARTESIAN_POINT ( 'NONE',  ( -9.208318687318017837, -23.82450139987802373, -1.000000000000000666 ) ) ;
#182 = DIRECTION ( 'NONE',  ( 0.000000000000000000, 0.000000000000000000, 1.000000000000000000 ) ) ;
#183 = ORIENTED_EDGE ( 'NONE', *, *, #310, .F. ) ;
#184 = AXIS2_PLACEMENT_3D ( 'NONE', #668, #247, #664 ) ;
#185 = CYLINDRICAL_SURFACE ( 'NONE', #184, 26.50020271816266515 ) ;
#186 = DIRECTION ( 'NONE',  ( 0.000000000000000000, 0.000000000000000000, 1.000000000000000000 ) ) ;
#187 = VERTEX_POINT ( 'NONE', #500 ) ;
#188 = CARTESIAN_POINT ( 'NONE',  ( 11.40028919506822724, -22.97729109944883774, 0.9999999999999993339 ) ) ;
#189 = CARTESIAN_POINT ( 'NONE',  ( -1.734723475976807094E-15, -2.602085213965210642E-15, -1.000000000000000666 ) ) ;
#190 = CIRCLE ( 'NONE', #629, 0.7937499999999992895 ) ;
#191 = ORIENTED_EDGE ( 'NONE', *, *, #633, .F. ) ;
#192 = EDGE_CURVE ( 'NONE', #547, #470, #323, .T. ) ;
#193 = DIRECTION ( 'NONE',  ( 0.000000000000000000, 0.000000000000000000, 1.000000000000000000 ) ) ;
#194 = CARTESIAN_POINT ( 'NONE',  ( 11.40028919506822724, -22.97729109944883774, -1.000000000000000666 ) ) ;
#195 = ORIENTED_EDGE ( 'NONE', *, *, #256, .T. ) ;
#196 = AXIS2_PLACEMENT_3D ( 'NONE', #133, #60, #607 ) ;
#197 = EDGE_CURVE ( 'NONE', #610, #187, #281, .T. ) ;
#198 = DIRECTION ( 'NONE',  ( 1.000000000000000000, 0.000000000000000000, 0.000000000000000000 ) ) ;
#199 = CARTESIAN_POINT ( 'NONE',  ( -11.40028919506822724, -22.97729109944883774, 0.9999999999999993339 ) ) ;
#200 = EDGE_LOOP ( 'NONE', ( #757, #460, #31, #670, #659, #264, #195, #465, #476, #71, #38, #432, #164, #452, #678 ) ) ;
#201 = DIRECTION ( 'NONE',  ( 0.000000000000000000, 0.000000000000000000, 1.000000000000000000 ) ) ;
#202 = FACE_OUTER_BOUND ( 'NONE', #151, .T. ) ;
#203 = ADVANCED_FACE ( 'NONE', ( #202 ), #145, .F. ) ;
#204 = ORIENTED_EDGE ( 'NONE', *, *, #4, .T. ) ;
#205 = VECTOR ( 'NONE', #741, 1000.000000000000000 ) ;
#206 = CARTESIAN_POINT ( 'NONE',  ( 11.40028919506822724, -22.97729109944883774, -1.000000000000000666 ) ) ;
#207 = DIRECTION ( 'NONE',  ( 1.000000000000000000, 0.000000000000000000, 0.000000000000000000 ) ) ;
#208 = EDGE_CURVE ( 'NONE', #270, #696, #590, .T. ) ;
#209 = ORIENTED_EDGE ( 'NONE', *, *, #499, .T. ) ;
#210 = DIRECTION ( 'NONE',  ( 0.000000000000000000, 0.000000000000000000, 1.000000000000000000 ) ) ;
#211 = AXIS2_PLACEMENT_3D ( 'NONE', #222, #699, #165 ) ;
#212 = CARTESIAN_POINT ( 'NONE',  ( 11.40028919506822724, -22.97729109944883774, 0.9999999999999993339 ) ) ;
#213 = VERTEX_POINT ( 'NONE', #744 ) ;
#214 = CARTESIAN_POINT ( 'NONE',  ( -1.734723475976807094E-15, -2.602085213965210642E-15, -1.000000000000000666 ) ) ;
#215 = VERTEX_POINT ( 'NONE', #512 ) ;
#216 = CIRCLE ( 'NONE', #751, 1.249999999999999334 ) ;
#217 = VECTOR ( 'NONE', #291, 1000.000000000000227 ) ;
#218 = APPROVAL_STATUS ( 'not_yet_approved' ) ;
#219 = DIRECTION ( 'NONE',  ( 0.000000000000000000, 0.000000000000000000, 1.000000000000000000 ) ) ;
#220 = ORIENTED_EDGE ( 'NONE', *, *, #208, .F. ) ;
#221 = PERSON_AND_ORGANIZATION ( #466, #82 ) ;
#222 = CARTESIAN_POINT ( 'NONE',  ( 0.000000000000000000, -1.500202718162663817, 0.9999999999999993339 ) ) ;
#223 = CIRCLE ( 'NONE', #418, 30.10000000000000142 ) ;
#224 = ORIENTED_EDGE ( 'NONE', *, *, #469, .T. ) ;
#225 = DIRECTION ( 'NONE',  ( 1.000000000000000000, 0.000000000000000000, 0.000000000000000000 ) ) ;
#226 = ORIENTED_EDGE ( 'NONE', *, *, #310, .T. ) ;
#227 = EDGE_CURVE ( 'NONE', #521, #502, #190, .T. ) ;
#228 = DATE_AND_TIME ( #761, #55 ) ;
#229 = AXIS2_PLACEMENT_3D ( 'NONE', #199, #554, #390 ) ;
#230 = DIRECTION ( 'NONE',  ( 0.000000000000000000, 0.000000000000000000, 1.000000000000000000 ) ) ;
#231 = ORIENTED_EDGE ( 'NONE', *, *, #227, .T. ) ;
#232 = APPROVAL ( #286, 'UNSPECIFIED' ) ;
#233 = FACE_OUTER_BOUND ( 'NONE', #200, .T. ) ;
#234 = CIRCLE ( 'NONE', #673, 1.249999999999999334 ) ;
#235 = VERTEX_POINT ( 'NONE', #566 ) ;
#236 = EDGE_CURVE ( 'NONE', #547, #729, #51, .T. ) ;
#237 = FACE_BOUND ( 'NONE', #35, .T. ) ;
#238 = LINE ( 'NONE', #303, #424 ) ;
#239 = CARTESIAN_POINT ( 'NONE',  ( -1.734723475976807094E-15, -2.602085213965210642E-15, -1.000000000000000666 ) ) ;
#240 = AXIS2_PLACEMENT_3D ( 'NONE', #212, #628, #455 ) ;
#241 = DIRECTION ( 'NONE',  ( -0.9327534075532785129, -0.3605150214592280355, 0.000000000000000000 ) ) ;
#242 = EDGE_LOOP ( 'NONE', ( #308, #647, #79, #574 ) ) ;
#243 = DIRECTION ( 'NONE',  ( -1.000000000000000000, 0.000000000000000000, 0.000000000000000000 ) ) ;
#244 = DIRECTION ( 'NONE',  ( 1.000000000000000000, 0.000000000000000000, 0.000000000000000000 ) ) ;
#245 = ORIENTED_EDGE ( 'NONE', *, *, #227, .F. ) ;
#246 = CIRCLE ( 'NONE', #211, 26.50020271816266515 ) ;
#247 = DIRECTION ( 'NONE',  ( 0.000000000000000000, 0.000000000000000000, 1.000000000000000000 ) ) ;
#248 = FACE_OUTER_BOUND ( 'NONE', #704, .T. ) ;
#249 = EDGE_CURVE ( 'NONE', #622, #178, #52, .T. ) ;
#250 = ORIENTED_EDGE ( 'NONE', *, *, #652, .T. ) ;
#251 = DIRECTION ( 'NONE',  ( 1.000000000000000000, 0.000000000000000000, 0.000000000000000000 ) ) ;
#252 = LINE ( 'NONE', #669, #602 ) ;
#253 = VECTOR ( 'NONE', #616, 1000.000000000000227 ) ;
#254 = AXIS2_PLACEMENT_3D ( 'NONE', #339, #641, #702 ) ;
#255 = VERTEX_POINT ( 'NONE', #394 ) ;
#256 = EDGE_CURVE ( 'NONE', #171, #725, #349, .T. ) ;
#257 = LOCAL_TIME ( 1, 12, 50.00000000000000000, #572 ) ;
#258 = DIRECTION ( 'NONE',  ( 0.000000000000000000, 0.000000000000000000, 1.000000000000000000 ) ) ;
#259 = FACE_OUTER_BOUND ( 'NONE', #297, .T. ) ;
#260 = VERTEX_POINT ( 'NONE', #517 ) ;
#261 = ADVANCED_FACE ( 'NONE', ( #25 ), #263, .F. ) ;
#262 = DIRECTION ( 'NONE',  ( -0.000000000000000000, -0.000000000000000000, -1.000000000000000000 ) ) ;
#263 = CYLINDRICAL_SURFACE ( 'NONE', #496, 5.980178705927092331 ) ;
#264 = ORIENTED_EDGE ( 'NONE', *, *, #618, .T. ) ;
#265 = CARTESIAN_POINT ( 'NONE',  ( 9.208318687318021389, -23.82450139987802373, 0.9999999999999993339 ) ) ;
#266 = CYLINDRICAL_SURFACE ( 'NONE', #714, 30.10000000000000142 ) ;
#267 = ORIENTED_EDGE ( 'NONE', *, *, #402, .F. ) ;
#268 = CARTESIAN_POINT ( 'NONE',  ( 10.15028919506822724, -22.97729109944883774, 0.9999999999999993339 ) ) ;
#269 = CARTESIAN_POINT ( 'NONE',  ( 11.40028919506822724, -22.97729109944883774, -1.000000000000000666 ) ) ;
#270 = VERTEX_POINT ( 'NONE', #327 ) ;
#271 = AXIS2_PLACEMENT_3D ( 'NONE', #479, #421, #752 ) ;
#272 = FACE_OUTER_BOUND ( 'NONE', #589, .T. ) ;
#273 = VECTOR ( 'NONE', #719, 1000.000000000000000 ) ;
#274 = CARTESIAN_POINT ( 'NONE',  ( -11.40028919506822724, -22.97729109944883774, -1.000000000000000666 ) ) ;
#275 = EDGE_LOOP ( 'NONE', ( #634, #160, #341, #146 ) ) ;
#276 = ADVANCED_FACE ( 'NONE', ( #95 ), #266, .T. ) ;
#277 = SHAPE_DEFINITION_REPRESENTATION ( #80, #391 ) ;
#278 = CARTESIAN_POINT ( 'NONE',  ( -11.40028919506822724, -22.97729109944883774, 0.9999999999999993339 ) ) ;
#279 = EDGE_LOOP ( 'NONE', ( #525, #104 ) ) ;
#280 = CIRCLE ( 'NONE', #385, 30.10000000000000142 ) ;
#281 = CIRCLE ( 'NONE', #27, 5.980178705927092331 ) ;
#282 = ADVANCED_FACE ( 'NONE', ( #259 ), #504, .T. ) ;
#283 = DIRECTION ( 'NONE',  ( 0.000000000000000000, 0.000000000000000000, 1.000000000000000000 ) ) ;
#284 = CARTESIAN_POINT ( 'NONE',  ( -11.30184039615044078, -27.03931753433215590, -1.000000000000000666 ) ) ;
#285 = ORIENTED_EDGE ( 'NONE', *, *, #583, .F. ) ;
#286 = APPROVAL_STATUS ( 'not_yet_approved' ) ;
#287 = EDGE_CURVE ( 'NONE', #361, #270, #398, .T. ) ;
#288 = CARTESIAN_POINT ( 'NONE',  ( -11.30184039615044078, -27.03931753433215590, -1.000000000000000666 ) ) ;
#289 = VECTOR ( 'NONE', #428, 1000.000000000000000 ) ;
#290 = ORIENTED_EDGE ( 'NONE', *, *, #287, .T. ) ;
#291 = DIRECTION ( 'NONE',  ( 0.3605150214592279800, -0.9327534075532784019, 0.000000000000000000 ) ) ;
#292 = ADVANCED_FACE ( 'NONE', ( #684 ), #681, .F. ) ;
#293 = ORIENTED_EDGE ( 'NONE', *, *, #34, .F. ) ;
#294 = APPROVAL_ROLE ( '' ) ;
#295 = AXIS2_PLACEMENT_3D ( 'NONE', #330, #334, #691 ) ;
#296 = DIRECTION ( 'NONE',  ( 0.000000000000000000, 0.000000000000000000, 1.000000000000000000 ) ) ;
#297 = EDGE_LOOP ( 'NONE', ( #129, #18, #473, #416 ) ) ;
#298 = DIRECTION ( 'NONE',  ( 0.000000000000000000, 0.000000000000000000, 1.000000000000000000 ) ) ;
#299 = VECTOR ( 'NONE', #16, 1000.000000000000000 ) ;
#300 = EDGE_LOOP ( 'NONE', ( #585, #494, #617, #419 ) ) ;
#301 = EDGE_CURVE ( 'NONE', #692, #260, #739, .T. ) ;
#302 = CARTESIAN_POINT ( 'NONE',  ( -15.02426536691825376, -15.47671285650354100, 0.9999999999999993339 ) ) ;
#303 = CARTESIAN_POINT ( 'NONE',  ( -9.208318687318017837, -23.82450139987802373, -1.000000000000000666 ) ) ;
#304 = ORIENTED_EDGE ( 'NONE', *, *, #396, .F. ) ;
#305 = CARTESIAN_POINT ( 'NONE',  ( 10.56146737890502507, -27.32547633261541620, -1.000000000000000666 ) ) ;
#306 = VECTOR ( 'NONE', #458, 1000.000000000000000 ) ;
#307 = CARTESIAN_POINT ( 'NONE',  ( 30.10000000000000142, -2.602085213965210642E-15, 0.9999999999999993339 ) ) ;
#308 = ORIENTED_EDGE ( 'NONE', *, *, #335, .F. ) ;
#309 = LINE ( 'NONE', #545, #515 ) ;
#310 = EDGE_CURVE ( 'NONE', #729, #610, #159, .T. ) ;
#311 = CARTESIAN_POINT ( 'NONE',  ( -10.56146737890502507, -27.32547633261541975, 0.9999999999999993339 ) ) ;
#312 = ORIENTED_EDGE ( 'NONE', *, *, #513, .F. ) ;
#313 = LINE ( 'NONE', #439, #273 ) ;
#314 = CARTESIAN_POINT ( 'NONE',  ( -11.40028919506822724, -22.97729109944883774, -1.000000000000000666 ) ) ;
#315 = EDGE_LOOP ( 'NONE', ( #42, #312, #10, #438 ) ) ;
#316 = DIRECTION ( 'NONE',  ( 0.000000000000000000, 0.000000000000000000, 1.000000000000000000 ) ) ;
#317 = DIRECTION ( 'NONE',  ( 0.3605150214592279800, -0.9327534075532784019, 0.000000000000000000 ) ) ;
#318 = CLOSED_SHELL ( 'NONE', ( #203, #172, #141, #453, #519, #645, #276, #9, #54, #770, #431, #292, #261, #560, #282, #598, #350, #62, #362, #136, #420 ) ) ;
#319 = AXIS2_PLACEMENT_3D ( 'NONE', #580, #529, #47 ) ;
#320 = ORIENTED_EDGE ( 'NONE', *, *, #694, .F. ) ;
#321 = EDGE_CURVE ( 'NONE', #639, #765, #472, .T. ) ;
#322 = DIRECTION ( 'NONE',  ( 1.000000000000000000, 0.000000000000000000, 0.000000000000000000 ) ) ;
#323 = LINE ( 'NONE', #557, #205 ) ;
#324 = VERTEX_POINT ( 'NONE', #651 ) ;
#325 = CIRCLE ( 'NONE', #621, 1.249999999999999334 ) ;
#326 = LINE ( 'NONE', #686, #299 ) ;
#327 = CARTESIAN_POINT ( 'NONE',  ( -9.050289195068227599, -22.97729109944883774, 0.9999999999999993339 ) ) ;
#328 = ORIENTED_EDGE ( 'NONE', *, *, #147, .F. ) ;
#329 = CARTESIAN_POINT ( 'NONE',  ( 10.56146737890502507, -27.32547633261541620, 0.9999999999999993339 ) ) ;
#330 = CARTESIAN_POINT ( 'NONE',  ( -15.02426536691825376, -15.47671285650354100, -1.000000000000000666 ) ) ;
#331 = ORIENTED_EDGE ( 'NONE', *, *, #402, .T. ) ;
#332 = AXIS2_PLACEMENT_3D ( 'NONE', #314, #134, #244 ) ;
#333 = CARTESIAN_POINT ( 'NONE',  ( 11.40028919506822724, -22.97729109944883774, -1.000000000000000666 ) ) ;
#334 = DIRECTION ( 'NONE',  ( -0.000000000000000000, -0.000000000000000000, -1.000000000000000000 ) ) ;
#335 = EDGE_CURVE ( 'NONE', #682, #84, #459, .T. ) ;
#336 = ORIENTED_EDGE ( 'NONE', *, *, #14, .F. ) ;
#337 = AXIS2_PLACEMENT_3D ( 'NONE', #50, #296, #532 ) ;
#338 = PERSON_AND_ORGANIZATION_ROLE ( 'design_supplier' ) ;
#339 = CARTESIAN_POINT ( 'NONE',  ( -11.40028919506822724, -22.97729109944883774, -1.000000000000000666 ) ) ;
#340 = EDGE_CURVE ( 'NONE', #361, #692, #551, .T. ) ;
#341 = ORIENTED_EDGE ( 'NONE', *, *, #721, .T. ) ;
#342 = APPROVAL_ROLE ( '' ) ;
#343 = DIRECTION ( 'NONE',  ( 0.000000000000000000, 0.000000000000000000, 1.000000000000000000 ) ) ;
#344 = ORIENTED_EDGE ( 'NONE', *, *, #321, .T. ) ;
#345 = EDGE_CURVE ( 'NONE', #663, #559, #359, .T. ) ;
#346 = DATE_AND_TIME ( #36, #257 ) ;
#347 = PRODUCT_DEFINITION_FORMATION_WITH_SPECIFIED_SOURCE ( 'ANY', '', #734, .NOT_KNOWN. ) ;
#348 = DIRECTION ( 'NONE',  ( 0.000000000000000000, 0.000000000000000000, 1.000000000000000000 ) ) ;
#349 = LINE ( 'NONE', #140, #253 ) ;
#350 = ADVANCED_FACE ( 'NONE', ( #706 ), #410, .F. ) ;
#351 = APPROVAL_ROLE ( '' ) ;
#352 = CYLINDRICAL_SURFACE ( 'NONE', #708, 0.7937499999999992895 ) ;
#353 = VECTOR ( 'NONE', #593, 1000.000000000000227 ) ;
#354 = EDGE_LOOP ( 'NONE', ( #567, #717, #518, #753 ) ) ;
#355 = MECHANICAL_CONTEXT ( 'NONE', #383, 'mechanical' ) ;
#356 = FACE_BOUND ( 'NONE', #422, .T. ) ;
#357 = ORIENTED_EDGE ( 'NONE', *, *, #301, .F. ) ;
#358 = VECTOR ( 'NONE', #230, 1000.000000000000000 ) ;
#359 = CIRCLE ( 'NONE', #319, 0.7937499999999992895 ) ;
#360 = LINE ( 'NONE', #181, #353 ) ;
#361 = VERTEX_POINT ( 'NONE', #162 ) ;
#362 = ADVANCED_FACE ( 'NONE', ( #233, #573, #356 ), #174, .F. ) ;
#363 = DIRECTION ( 'NONE',  ( 0.000000000000000000, 0.000000000000000000, 1.000000000000000000 ) ) ;
#364 = CIRCLE ( 'NONE', #429, 1.249999999999999334 ) ;
#365 = CARTESIAN_POINT ( 'NONE',  ( -11.40028919506822724, -22.97729109944883774, 0.9999999999999993339 ) ) ;
#366 = ORIENTED_EDGE ( 'NONE', *, *, #345, .F. ) ;
#367 = DIRECTION ( 'NONE',  ( -1.000000000000000000, 0.000000000000000000, 0.000000000000000000 ) ) ;
#368 = DIRECTION ( 'NONE',  ( 0.000000000000000000, 0.000000000000000000, 1.000000000000000000 ) ) ;
#369 = EDGE_LOOP ( 'NONE', ( #594, #344, #445, #293 ) ) ;
#370 = EDGE_CURVE ( 'NONE', #255, #91, #44, .T. ) ;
#371 = CARTESIAN_POINT ( 'NONE',  ( -11.40028919506822724, -22.97729109944883774, -1.000000000000000666 ) ) ;
#372 = AXIS2_PLACEMENT_3D ( 'NONE', #180, #128, #427 ) ;
#373 = APPLICATION_CONTEXT ( 'configuration controlled 3d designs of mechanical parts and assemblies' ) ;
#374 = DIRECTION ( 'NONE',  ( -1.000000000000000000, 0.000000000000000000, 0.000000000000000000 ) ) ;
#375 = EDGE_CURVE ( 'NONE', #502, #663, #468, .T. ) ;
#376 = CARTESIAN_POINT ( 'NONE',  ( 11.60794697117946939, -27.77166842511061517, -1.000000000000000666 ) ) ;
#377 = CARTESIAN_POINT ( 'NONE',  ( 9.208318687318017837, -23.82450139987802373, 0.9999999999999993339 ) ) ;
#378 = AXIS2_PLACEMENT_3D ( 'NONE', #239, #482, #436 ) ;
#379 = ORIENTED_EDGE ( 'NONE', *, *, #370, .F. ) ;
#380 = CARTESIAN_POINT ( 'NONE',  ( 12.42263749088425762, -20.86132702554728624, -1.000000000000000666 ) ) ;
#381 = DIRECTION ( 'NONE',  ( 1.000000000000000000, 0.000000000000000000, 0.000000000000000000 ) ) ;
#382 = EDGE_CURVE ( 'NONE', #765, #630, #461, .T. ) ;
#383 = APPLICATION_CONTEXT ( 'configuration controlled 3d designs of mechanical parts and assemblies' ) ;
#384 = FACE_OUTER_BOUND ( 'NONE', #369, .T. ) ;
#385 = AXIS2_PLACEMENT_3D ( 'NONE', #177, #417, #415 ) ;
#386 = DIRECTION ( 'NONE',  ( 0.000000000000000000, 0.000000000000000000, 1.000000000000000000 ) ) ;
#387 = AXIS2_PLACEMENT_3D ( 'NONE', #83, #86, #507 ) ;
#388 = ORIENTED_EDGE ( 'NONE', *, *, #623, .T. ) ;
#389 = DIRECTION ( 'NONE',  ( -0.000000000000000000, -0.000000000000000000, -1.000000000000000000 ) ) ;
#390 = DIRECTION ( 'NONE',  ( -1.000000000000000000, 0.000000000000000000, 0.000000000000000000 ) ) ;
#391 = ADVANCED_BREP_SHAPE_REPRESENTATION ( '98455A367_Internal Retaining Ring', ( #404, #592 ), #510 ) ;
#392 = EDGE_LOOP ( 'NONE', ( #209, #533, #183, #75 ) ) ;
#393 = AXIS2_PLACEMENT_3D ( 'NONE', #7, #488, #243 ) ;
#394 = CARTESIAN_POINT ( 'NONE',  ( -26.50020271816266515, -1.500202718162660487, -1.000000000000000666 ) ) ;
#395 = ORIENTED_EDGE ( 'NONE', *, *, #340, .T. ) ;
#396 = EDGE_CURVE ( 'NONE', #685, #502, #116, .T. ) ;
#397 = DIRECTION ( 'NONE',  ( -0.000000000000000000, -0.000000000000000000, -1.000000000000000000 ) ) ;
#398 = LINE ( 'NONE', #620, #306 ) ;
#399 = EDGE_LOOP ( 'NONE', ( #606, #267 ) ) ;
#400 = AXIS2_PLACEMENT_3D ( 'NONE', #150, #625, #90 ) ;
#401 = SECURITY_CLASSIFICATION_LEVEL ( 'unclassified' ) ;
#402 = EDGE_CURVE ( 'NONE', #643, #324, #655, .T. ) ;
#403 = DIRECTION ( 'NONE',  ( -0.000000000000000000, -0.000000000000000000, -1.000000000000000000 ) ) ;
#404 = MANIFOLD_SOLID_BREP ( 'Fillet1', #318 ) ;
#405 = ORIENTED_EDGE ( 'NONE', *, *, #508, .F. ) ;
#406 = DIRECTION ( 'NONE',  ( -0.000000000000000000, -0.000000000000000000, -1.000000000000000000 ) ) ;
#407 = VERTEX_POINT ( 'NONE', #41 ) ;
#408 = EDGE_CURVE ( 'NONE', #559, #87, #280, .T. ) ;
#409 = DATE_TIME_ROLE ( 'classification_date' ) ;
#410 = CYLINDRICAL_SURFACE ( 'NONE', #254, 1.249999999999999334 ) ;
#411 = ORIENTED_EDGE ( 'NONE', *, *, #746, .F. ) ;
#412 = CIRCLE ( 'NONE', #143, 30.10000000000000142 ) ;
#413 = PERSON_AND_ORGANIZATION ( #466, #82 ) ;
#414 = LOCAL_TIME ( 1, 12, 50.00000000000000000, #693 ) ;
#415 = DIRECTION ( 'NONE',  ( -1.000000000000000000, 0.000000000000000000, 0.000000000000000000 ) ) ;
#416 = ORIENTED_EDGE ( 'NONE', *, *, #14, .T. ) ;
#417 = DIRECTION ( 'NONE',  ( 0.000000000000000000, 0.000000000000000000, 1.000000000000000000 ) ) ;
#418 = AXIS2_PLACEMENT_3D ( 'NONE', #118, #193, #425 ) ;
#419 = ORIENTED_EDGE ( 'NONE', *, *, #638, .T. ) ;
#420 = ADVANCED_FACE ( 'NONE', ( #111 ), #352, .T. ) ;
#421 = DIRECTION ( 'NONE',  ( 0.000000000000000000, 0.000000000000000000, 1.000000000000000000 ) ) ;
#422 = EDGE_LOOP ( 'NONE', ( #530, #435 ) ) ;
#423 = AXIS2_PLACEMENT_3D ( 'NONE', #278, #527, #225 ) ;
#424 = VECTOR ( 'NONE', #77, 1000.000000000000000 ) ;
#425 = DIRECTION ( 'NONE',  ( -1.000000000000000000, 0.000000000000000000, 0.000000000000000000 ) ) ;
#426 = AXIS2_PLACEMENT_3D ( 'NONE', #206, #450, #747 ) ;
#427 = DIRECTION ( 'NONE',  ( 1.000000000000000000, 0.000000000000000000, 0.000000000000000000 ) ) ;
#428 = DIRECTION ( 'NONE',  ( 0.000000000000000000, 0.000000000000000000, 1.000000000000000000 ) ) ;
#429 = AXIS2_PLACEMENT_3D ( 'NONE', #188, #130, #773 ) ;
#430 = LINE ( 'NONE', #720, #614 ) ;
#431 = ADVANCED_FACE ( 'NONE', ( #520 ), #524, .F. ) ;
#432 = ORIENTED_EDGE ( 'NONE', *, *, #485, .T. ) ;
#433 = FACE_OUTER_BOUND ( 'NONE', #449, .T. ) ;
#434 = CARTESIAN_POINT ( 'NONE',  ( 11.40028919506822724, -22.97729109944883774, -1.000000000000000666 ) ) ;
#435 = ORIENTED_EDGE ( 'NONE', *, *, #249, .F. ) ;
#436 = DIRECTION ( 'NONE',  ( -1.000000000000000000, 0.000000000000000000, 0.000000000000000000 ) ) ;
#437 = DIRECTION ( 'NONE',  ( 1.000000000000000000, 0.000000000000000000, 0.000000000000000000 ) ) ;
#438 = ORIENTED_EDGE ( 'NONE', *, *, #301, .T. ) ;
#439 = CARTESIAN_POINT ( 'NONE',  ( -12.65028919506822547, -22.97729109944883774, -1.000000000000000666 ) ) ;
#440 = DIRECTION ( 'NONE',  ( 0.000000000000000000, 0.000000000000000000, 1.000000000000000000 ) ) ;
#441 = VECTOR ( 'NONE', #446, 1000.000000000000000 ) ;
#442 = ORIENTED_EDGE ( 'NONE', *, *, #340, .F. ) ;
#443 = CARTESIAN_POINT ( 'NONE',  ( -30.10000000000000142, 1.084101651468323077E-15, -1.000000000000000666 ) ) ;
#444 = DIRECTION ( 'NONE',  ( -1.000000000000000000, 0.000000000000000000, 0.000000000000000000 ) ) ;
#445 = ORIENTED_EDGE ( 'NONE', *, *, #68, .F. ) ;
#446 = DIRECTION ( 'NONE',  ( 0.000000000000000000, 0.000000000000000000, 1.000000000000000000 ) ) ;
#447 = DIRECTION ( 'NONE',  ( 1.000000000000000000, 0.000000000000000000, 0.000000000000000000 ) ) ;
#448 = AXIS2_PLACEMENT_3D ( 'NONE', #540, #241, #728 ) ;
#449 = EDGE_LOOP ( 'NONE', ( #733, #395, #528, #220 ) ) ;
#450 = DIRECTION ( 'NONE',  ( 0.000000000000000000, 0.000000000000000000, 1.000000000000000000 ) ) ;
#451 = DIRECTION ( 'NONE',  ( 0.000000000000000000, 0.000000000000000000, 1.000000000000000000 ) ) ;
#452 = ORIENTED_EDGE ( 'NONE', *, *, #197, .T. ) ;
#453 = ADVANCED_FACE ( 'NONE', ( #756 ), #767, .F. ) ;
#454 = CARTESIAN_POINT ( 'NONE',  ( 19.40280760282733752, -19.54990635094792850, -1.000000000000000666 ) ) ;
#455 = DIRECTION ( 'NONE',  ( -1.000000000000000000, 0.000000000000000000, 0.000000000000000000 ) ) ;
#456 = ORIENTED_EDGE ( 'NONE', *, *, #4, .F. ) ;
#457 = PERSON_AND_ORGANIZATION ( #466, #82 ) ;
#458 = DIRECTION ( 'NONE',  ( 0.000000000000000000, 0.000000000000000000, 1.000000000000000000 ) ) ;
#459 = CIRCLE ( 'NONE', #119, 0.7937499999999992895 ) ;
#460 = ORIENTED_EDGE ( 'NONE', *, *, #345, .T. ) ;
#461 = CIRCLE ( 'NONE', #553, 30.10000000000000142 ) ;
#462 = DIRECTION ( 'NONE',  ( 1.000000000000000000, 0.000000000000000000, 0.000000000000000000 ) ) ;
#463 = EDGE_CURVE ( 'NONE', #537, #91, #246, .T. ) ;
#464 = DIRECTION ( 'NONE',  ( -1.000000000000000000, 0.000000000000000000, 0.000000000000000000 ) ) ;
#465 = ORIENTED_EDGE ( 'NONE', *, *, #163, .T. ) ;
#466 = PERSON ( 'UNSPECIFIED', 'UNSPECIFIED', 'UNSPECIFIED', ('UNSPECIFIED'), ('UNSPECIFIED'), ('UNSPECIFIED') ) ;
#467 = PERSON_AND_ORGANIZATION ( #466, #82 ) ;
#468 = LINE ( 'NONE', #695, #15 ) ;
#469 = EDGE_CURVE ( 'NONE', #260, #255, #21, .T. ) ;
#470 = VERTEX_POINT ( 'NONE', #542 ) ;
#471 = PERSON_AND_ORGANIZATION_ROLE ( 'creator' ) ;
#472 = LINE ( 'NONE', #759, #13 ) ;
#473 = ORIENTED_EDGE ( 'NONE', *, *, #538, .T. ) ;
#474 = AXIS2_PLACEMENT_3D ( 'NONE', #609, #662, #713 ) ;
#475 = DIRECTION ( 'NONE',  ( -1.000000000000000000, 0.000000000000000000, 0.000000000000000000 ) ) ;
#476 = ORIENTED_EDGE ( 'NONE', *, *, #208, .T. ) ;
#477 = EDGE_CURVE ( 'NONE', #407, #643, #313, .T. ) ;
#478 = AXIS2_PLACEMENT_3D ( 'NONE', #127, #210, #624 ) ;
#479 = CARTESIAN_POINT ( 'NONE',  ( 0.000000000000000000, -1.500202718162663817, -1.000000000000000666 ) ) ;
#480 = ORIENTED_EDGE ( 'NONE', *, *, #595, .T. ) ;
#481 = EDGE_CURVE ( 'NONE', #470, #610, #126, .T. ) ;
#482 = DIRECTION ( 'NONE',  ( -0.000000000000000000, 0.000000000000000000, -1.000000000000000000 ) ) ;
#483 = FACE_OUTER_BOUND ( 'NONE', #354, .T. ) ;
#484 = FACE_BOUND ( 'NONE', #279, .T. ) ;
#485 = EDGE_CURVE ( 'NONE', #91, #470, #46, .T. ) ;
#486 = APPROVAL_PERSON_ORGANIZATION ( #110, #736, #351 ) ;
#487 = DIRECTION ( 'NONE',  ( 0.000000000000000000, 0.000000000000000000, 1.000000000000000000 ) ) ;
#488 = DIRECTION ( 'NONE',  ( -0.000000000000000000, -0.000000000000000000, -1.000000000000000000 ) ) ;
#489 = AXIS2_PLACEMENT_3D ( 'NONE', #302, #599, #251 ) ;
#490 = FACE_OUTER_BOUND ( 'NONE', #722, .T. ) ;
#491 = ORIENTED_EDGE ( 'NONE', *, *, #396, .T. ) ;
#492 = FACE_OUTER_BOUND ( 'NONE', #112, .T. ) ;
#493 = LINE ( 'NONE', #377, #667 ) ;
#494 = ORIENTED_EDGE ( 'NONE', *, *, #34, .T. ) ;
#495 = CARTESIAN_POINT ( 'NONE',  ( -19.40280760282735173, -19.54990635094791429, 0.9999999999999993339 ) ) ;
#496 = AXIS2_PLACEMENT_3D ( 'NONE', #687, #154, #748 ) ;
#497 = CARTESIAN_POINT ( 'NONE',  ( 10.15028919506822724, -22.97729109944883774, -1.000000000000000666 ) ) ;
#498 = ORIENTED_EDGE ( 'NONE', *, *, #694, .T. ) ;
#499 = EDGE_CURVE ( 'NONE', #749, #187, #69, .T. ) ;
#500 = CARTESIAN_POINT ( 'NONE',  ( 12.42263749088425762, -20.86132702554728624, 0.9999999999999993339 ) ) ;
#501 = VECTOR ( 'NONE', #258, 1000.000000000000000 ) ;
#502 = VERTEX_POINT ( 'NONE', #305 ) ;
#503 = DIRECTION ( 'NONE',  ( 0.000000000000000000, 0.000000000000000000, 1.000000000000000000 ) ) ;
#504 = PLANE ( 'NONE',  #387 ) ;
#505 = ORIENTED_EDGE ( 'NONE', *, *, #375, .F. ) ;
#506 = CYLINDRICAL_SURFACE ( 'NONE', #426, 2.349999999999999645 ) ;
#507 = DIRECTION ( 'NONE',  ( 0.3605150214592279800, 0.9327534075532784019, 0.000000000000000000 ) ) ;
#508 = EDGE_CURVE ( 'NONE', #639, #84, #223, .T. ) ;
#509 = ORIENTED_EDGE ( 'NONE', *, *, #249, .T. ) ;
#510 =( GEOMETRIC_REPRESENTATION_CONTEXT ( 3 ) GLOBAL_UNCERTAINTY_ASSIGNED_CONTEXT ( ( #103 ) ) GLOBAL_UNIT_ASSIGNED_CONTEXT ( ( #672, #173, #690 ) ) REPRESENTATION_CONTEXT ( 'NONE', 'WORKASPACE' ) );
#511 = CARTESIAN_POINT ( 'NONE',  ( -1.734723475976807094E-15, -2.602085213965210642E-15, -1.000000000000000666 ) ) ;
#512 = CARTESIAN_POINT ( 'NONE',  ( -9.208318687318017837, -23.82450139987802373, -1.000000000000000666 ) ) ;
#513 = EDGE_CURVE ( 'NONE', #696, #537, #72, .T. ) ;
#514 = ORIENTED_EDGE ( 'NONE', *, *, #236, .T. ) ;
#515 = VECTOR ( 'NONE', #771, 1000.000000000000000 ) ;
#516 = LINE ( 'NONE', #32, #501 ) ;
#517 = CARTESIAN_POINT ( 'NONE',  ( -19.40280760282735173, -19.54990635094791429, -1.000000000000000666 ) ) ;
#518 = ORIENTED_EDGE ( 'NONE', *, *, #755, .T. ) ;
#519 = ADVANCED_FACE ( 'NONE', ( #603 ), #185, .F. ) ;
#520 = FACE_OUTER_BOUND ( 'NONE', #392, .T. ) ;
#521 = VERTEX_POINT ( 'NONE', #376 ) ;
#522 = CC_DESIGN_APPROVAL ( #736, ( #588 ) ) ;
#523 = COORDINATED_UNIVERSAL_TIME_OFFSET ( 6, 0, .BEHIND. ) ;
#524 = CYLINDRICAL_SURFACE ( 'NONE', #337, 5.980178705927092331 ) ;
#525 = ORIENTED_EDGE ( 'NONE', *, *, #147, .T. ) ;
#526 = APPROVAL_DATE_TIME ( #346, #565 ) ;
#527 = DIRECTION ( 'NONE',  ( 0.000000000000000000, 0.000000000000000000, 1.000000000000000000 ) ) ;
#528 = ORIENTED_EDGE ( 'NONE', *, *, #613, .T. ) ;
#529 = DIRECTION ( 'NONE',  ( 0.000000000000000000, 0.000000000000000000, 1.000000000000000000 ) ) ;
#530 = ORIENTED_EDGE ( 'NONE', *, *, #595, .F. ) ;
#531 = CIRCLE ( 'NONE', #156, 1.249999999999999334 ) ;
#532 = DIRECTION ( 'NONE',  ( 1.000000000000000000, 0.000000000000000000, 0.000000000000000000 ) ) ;
#533 = ORIENTED_EDGE ( 'NONE', *, *, #197, .F. ) ;
#534 = CC_DESIGN_PERSON_AND_ORGANIZATION_ASSIGNMENT ( #648, #158, ( #588 ) ) ;
#535 = AXIS2_PLACEMENT_3D ( 'NONE', #144, #389, #148 ) ;
#536 = DIRECTION ( 'NONE',  ( 1.000000000000000000, 0.000000000000000000, 0.000000000000000000 ) ) ;
#537 = VERTEX_POINT ( 'NONE', #495 ) ;
#538 = EDGE_CURVE ( 'NONE', #682, #215, #360, .T. ) ;
#539 = DIRECTION ( 'NONE',  ( 0.000000000000000000, 0.000000000000000000, 1.000000000000000000 ) ) ;
#540 = CARTESIAN_POINT ( 'NONE',  ( 9.208318687318017837, -23.82450139987802373, -1.000000000000000666 ) ) ;
#541 = ORIENTED_EDGE ( 'NONE', *, *, #721, .F. ) ;
#542 = CARTESIAN_POINT ( 'NONE',  ( 26.50020271816266515, -1.500202718162663817, 0.9999999999999993339 ) ) ;
#543 = LOCAL_TIME ( 1, 12, 50.00000000000000000, #636 ) ;
#544 = DIRECTION ( 'NONE',  ( -0.000000000000000000, -0.000000000000000000, -1.000000000000000000 ) ) ;
#545 = CARTESIAN_POINT ( 'NONE',  ( -19.40280760282735173, -19.54990635094791429, -1.000000000000000666 ) ) ;
#546 = CYLINDRICAL_SURFACE ( 'NONE', #654, 1.249999999999999334 ) ;
#547 = VERTEX_POINT ( 'NONE', #73 ) ;
#548 = CARTESIAN_POINT ( 'NONE',  ( 12.42263749088425762, -20.86132702554728624, -1.000000000000000666 ) ) ;
#549 = CARTESIAN_POINT ( 'NONE',  ( -11.40028919506822724, -22.97729109944883774, -1.000000000000000666 ) ) ;
#550 = ORIENTED_EDGE ( 'NONE', *, *, #375, .T. ) ;
#551 = CIRCLE ( 'NONE', #157, 2.349999999999999645 ) ;
#552 = CARTESIAN_POINT ( 'NONE',  ( 12.65028919506822547, -22.97729109944883774, -1.000000000000000666 ) ) ;
#553 = AXIS2_PLACEMENT_3D ( 'NONE', #37, #348, #646 ) ;
#554 = DIRECTION ( 'NONE',  ( 0.000000000000000000, 0.000000000000000000, 1.000000000000000000 ) ) ;
#555 = EDGE_CURVE ( 'NONE', #215, #361, #758, .T. ) ;
#556 = CARTESIAN_POINT ( 'NONE',  ( -12.65028919506822547, -22.97729109944883774, 0.9999999999999993339 ) ) ;
#557 = CARTESIAN_POINT ( 'NONE',  ( 26.50020271816266515, -1.500202718162663817, -1.000000000000000666 ) ) ;
#558 = VECTOR ( 'NONE', #3, 1000.000000000000000 ) ;
#559 = VERTEX_POINT ( 'NONE', #123 ) ;
#560 = ADVANCED_FACE ( 'NONE', ( #433 ), #56, .T. ) ;
#561 = CARTESIAN_POINT ( 'NONE',  ( -30.10000000000000142, 1.084101651468323077E-15, 0.9999999999999993339 ) ) ;
#562 = CARTESIAN_POINT ( 'NONE',  ( 12.65028919506822547, -22.97729109944883774, 0.9999999999999993339 ) ) ;
#563 = EDGE_LOOP ( 'NONE', ( #491, #550, #53, #175 ) ) ;
#564 = CARTESIAN_POINT ( 'NONE',  ( -12.42263749088425939, -20.86132702554728624, 0.9999999999999993339 ) ) ;
#565 = APPROVAL ( #640, 'UNSPECIFIED' ) ;
#566 = CARTESIAN_POINT ( 'NONE',  ( -10.15028919506822724, -22.97729109944883774, -1.000000000000000666 ) ) ;
#567 = ORIENTED_EDGE ( 'NONE', *, *, #321, .F. ) ;
#568 = CARTESIAN_POINT ( 'NONE',  ( -12.42263749088425939, -20.86132702554728624, -1.000000000000000666 ) ) ;
#569 = DIRECTION ( 'NONE',  ( 0.000000000000000000, 0.000000000000000000, 1.000000000000000000 ) ) ;
#570 = ORIENTED_EDGE ( 'NONE', *, *, #192, .F. ) ;
#571 = AXIS2_PLACEMENT_3D ( 'NONE', #511, #503, #76 ) ;
#572 = COORDINATED_UNIVERSAL_TIME_OFFSET ( 6, 0, .BEHIND. ) ;
#573 = FACE_BOUND ( 'NONE', #399, .T. ) ;
#574 = ORIENTED_EDGE ( 'NONE', *, *, #755, .F. ) ;
#575 = EDGE_CURVE ( 'NONE', #324, #643, #325, .T. ) ;
#576 = DIRECTION ( 'NONE',  ( 0.000000000000000000, 0.000000000000000000, 1.000000000000000000 ) ) ;
#577 = AXIS2_PLACEMENT_3D ( 'NONE', #549, #12, #381 ) ;
#578 = ORIENTED_EDGE ( 'NONE', *, *, #78, .T. ) ;
#579 = CARTESIAN_POINT ( 'NONE',  ( 0.000000000000000000, 0.000000000000000000, 0.000000000000000000 ) ) ;
#580 = CARTESIAN_POINT ( 'NONE',  ( 11.30184039615044078, -27.03931753433215235, 0.9999999999999993339 ) ) ;
#581 = CARTESIAN_POINT ( 'NONE',  ( -11.40028919506822724, -22.97729109944883774, -1.000000000000000666 ) ) ;
#582 = AXIS2_PLACEMENT_3D ( 'NONE', #333, #201, #322 ) ;
#583 = EDGE_CURVE ( 'NONE', #260, #537, #309, .T. ) ;
#584 = CARTESIAN_POINT ( 'NONE',  ( 9.208318687318017837, -23.82450139987802373, -1.000000000000000666 ) ) ;
#585 = ORIENTED_EDGE ( 'NONE', *, *, #125, .T. ) ;
#586 = CALENDAR_DATE ( 2026, 8, 1 ) ;
#587 = DIRECTION ( 'NONE',  ( 0.000000000000000000, 0.000000000000000000, 1.000000000000000000 ) ) ;
#588 = PRODUCT_DEFINITION ( 'UNKNOWN', '', #347, #763 ) ;
#589 = EDGE_LOOP ( 'NONE', ( #388, #191, #601, #498 ) ) ;
#590 = CIRCLE ( 'NONE', #229, 2.349999999999999645 ) ;
#591 = AXIS2_PLACEMENT_3D ( 'NONE', #102, #709, #107 ) ;
#592 = AXIS2_PLACEMENT_3D ( 'NONE', #579, #283, #462 ) ;
#593 = DIRECTION ( 'NONE',  ( 0.3605150214592279800, 0.9327534075532784019, -0.000000000000000000 ) ) ;
#594 = ORIENTED_EDGE ( 'NONE', *, *, #115, .T. ) ;
#595 = EDGE_CURVE ( 'NONE', #178, #622, #364, .T. ) ;
#596 = CARTESIAN_POINT ( 'NONE',  ( 0.000000000000000000, -1.500202718162663817, 0.9999999999999993339 ) ) ;
#597 = DIRECTION ( 'NONE',  ( -1.000000000000000000, 0.000000000000000000, 0.000000000000000000 ) ) ;
#598 = ADVANCED_FACE ( 'NONE', ( #484, #237, #492 ), #723, .T. ) ;
#599 = DIRECTION ( 'NONE',  ( -0.000000000000000000, -0.000000000000000000, -1.000000000000000000 ) ) ;
#600 = FACE_OUTER_BOUND ( 'NONE', #760, .T. ) ;
#601 = ORIENTED_EDGE ( 'NONE', *, *, #499, .F. ) ;
#602 = VECTOR ( 'NONE', #368, 1000.000000000000000 ) ;
#603 = FACE_OUTER_BOUND ( 'NONE', #48, .T. ) ;
#604 = CC_DESIGN_SECURITY_CLASSIFICATION ( #108, ( #347 ) ) ;
#605 = DIRECTION ( 'NONE',  ( 1.000000000000000000, 0.000000000000000000, 0.000000000000000000 ) ) ;
#606 = ORIENTED_EDGE ( 'NONE', *, *, #575, .F. ) ;
#607 = DIRECTION ( 'NONE',  ( -1.000000000000000000, 0.000000000000000000, 0.000000000000000000 ) ) ;
#608 = AXIS2_PLACEMENT_3D ( 'NONE', #611, #20, #198 ) ;
#609 = CARTESIAN_POINT ( 'NONE',  ( -1.734723475976807094E-15, -2.602085213965210642E-15, -1.000000000000000666 ) ) ;
#610 = VERTEX_POINT ( 'NONE', #712 ) ;
#611 = CARTESIAN_POINT ( 'NONE',  ( 11.40028919506822724, -22.97729109944883774, 0.9999999999999993339 ) ) ;
#612 = DIRECTION ( 'NONE',  ( -1.000000000000000000, 0.000000000000000000, 0.000000000000000000 ) ) ;
#613 = EDGE_CURVE ( 'NONE', #692, #696, #179, .T. ) ;
#614 = VECTOR ( 'NONE', #544, 1000.000000000000000 ) ;
#615 = CARTESIAN_POINT ( 'NONE',  ( -10.56146737890502507, -27.32547633261541975, -1.000000000000000666 ) ) ;
#616 = DIRECTION ( 'NONE',  ( 0.3605150214592279800, 0.9327534075532784019, -0.000000000000000000 ) ) ;
#617 = ORIENTED_EDGE ( 'NONE', *, *, #408, .F. ) ;
#618 = EDGE_CURVE ( 'NONE', #630, #171, #176, .T. ) ;
#619 = DIRECTION ( 'NONE',  ( 0.000000000000000000, 0.000000000000000000, 1.000000000000000000 ) ) ;
#620 = CARTESIAN_POINT ( 'NONE',  ( -9.050289195068227599, -22.97729109944883774, -1.000000000000000666 ) ) ;
#621 = AXIS2_PLACEMENT_3D ( 'NONE', #661, #539, #536 ) ;
#622 = VERTEX_POINT ( 'NONE', #268 ) ;
#623 = EDGE_CURVE ( 'NONE', #685, #768, #730, .T. ) ;
#624 = DIRECTION ( 'NONE',  ( -1.000000000000000000, 0.000000000000000000, 0.000000000000000000 ) ) ;
#625 = DIRECTION ( 'NONE',  ( 0.000000000000000000, 0.000000000000000000, 1.000000000000000000 ) ) ;
#626 = ORIENTED_EDGE ( 'NONE', *, *, #689, .F. ) ;
#627 = CARTESIAN_POINT ( 'NONE',  ( 9.208318687318021389, -23.82450139987802373, -1.000000000000000666 ) ) ;
#628 = DIRECTION ( 'NONE',  ( 0.000000000000000000, 0.000000000000000000, 1.000000000000000000 ) ) ;
#629 = AXIS2_PLACEMENT_3D ( 'NONE', #677, #403, #444 ) ;
#630 = VERTEX_POINT ( 'NONE', #740 ) ;
#631 = PERSON_AND_ORGANIZATION_ROLE ( 'classification_officer' ) ;
#632 = CARTESIAN_POINT ( 'NONE',  ( 19.40280760282733752, -19.54990635094792850, -1.000000000000000666 ) ) ;
#633 = EDGE_CURVE ( 'NONE', #187, #768, #731, .T. ) ;
#634 = ORIENTED_EDGE ( 'NONE', *, *, #477, .F. ) ;
#635 = VECTOR ( 'NONE', #619, 1000.000000000000000 ) ;
#636 = COORDINATED_UNIVERSAL_TIME_OFFSET ( 6, 0, .BEHIND. ) ;
#637 = CARTESIAN_POINT ( 'NONE',  ( -11.40028919506822724, -22.97729109944883774, -1.000000000000000666 ) ) ;
#638 = EDGE_CURVE ( 'NONE', #559, #521, #153, .T. ) ;
#639 = VERTEX_POINT ( 'NONE', #443 ) ;
#640 = APPROVAL_STATUS ( 'not_yet_approved' ) ;
#641 = DIRECTION ( 'NONE',  ( 0.000000000000000000, 0.000000000000000000, 1.000000000000000000 ) ) ;
#642 = AXIS2_PLACEMENT_3D ( 'NONE', #269, #451, #98 ) ;
#643 = VERTEX_POINT ( 'NONE', #556 ) ;
#644 = LOCAL_TIME ( 1, 12, 50.00000000000000000, #161 ) ;
#645 = ADVANCED_FACE ( 'NONE', ( #384 ), #683, .T. ) ;
#646 = DIRECTION ( 'NONE',  ( -1.000000000000000000, 0.000000000000000000, 0.000000000000000000 ) ) ;
#647 = ORIENTED_EDGE ( 'NONE', *, *, #94, .F. ) ;
#648 = PERSON_AND_ORGANIZATION ( #466, #82 ) ;
#649 = DIRECTION ( 'NONE',  ( 1.000000000000000000, 0.000000000000000000, 0.000000000000000000 ) ) ;
#650 = ORIENTED_EDGE ( 'NONE', *, *, #192, .T. ) ;
#651 = CARTESIAN_POINT ( 'NONE',  ( -10.15028919506822724, -22.97729109944883774, 0.9999999999999993339 ) ) ;
#652 = EDGE_CURVE ( 'NONE', #255, #547, #697, .T. ) ;
#653 = ORIENTED_EDGE ( 'NONE', *, *, #163, .F. ) ;
#654 = AXIS2_PLACEMENT_3D ( 'NONE', #274, #569, #207 ) ;
#655 = CIRCLE ( 'NONE', #423, 1.249999999999999334 ) ;
#656 = CARTESIAN_POINT ( 'NONE',  ( -11.40028919506822724, -22.97729109944883774, -1.000000000000000666 ) ) ;
#657 = CYLINDRICAL_SURFACE ( 'NONE', #577, 2.349999999999999645 ) ;
#658 = PRODUCT_RELATED_PRODUCT_CATEGORY ( 'detail', '', ( #734 ) ) ;
#659 = ORIENTED_EDGE ( 'NONE', *, *, #382, .T. ) ;
#660 = AXIS2_PLACEMENT_3D ( 'NONE', #656, #363, #727 ) ;
#661 = CARTESIAN_POINT ( 'NONE',  ( -11.40028919506822724, -22.97729109944883774, 0.9999999999999993339 ) ) ;
#662 = DIRECTION ( 'NONE',  ( 0.000000000000000000, 0.000000000000000000, 1.000000000000000000 ) ) ;
#663 = VERTEX_POINT ( 'NONE', #329 ) ;
#664 = DIRECTION ( 'NONE',  ( 1.000000000000000000, 0.000000000000000000, 0.000000000000000000 ) ) ;
#665 = FACE_OUTER_BOUND ( 'NONE', #563, .T. ) ;
#666 = ORIENTED_EDGE ( 'NONE', *, *, #463, .F. ) ;
#667 = VECTOR ( 'NONE', #317, 1000.000000000000227 ) ;
#668 = CARTESIAN_POINT ( 'NONE',  ( 0.000000000000000000, -1.500202718162663817, -1.000000000000000666 ) ) ;
#669 = CARTESIAN_POINT ( 'NONE',  ( 30.10000000000000142, -2.602085213965210642E-15, -1.000000000000000666 ) ) ;
#670 = ORIENTED_EDGE ( 'NONE', *, *, #68, .T. ) ;
#671 = CC_DESIGN_PERSON_AND_ORGANIZATION_ASSIGNMENT ( #413, #39, ( #734 ) ) ;
#672 =( LENGTH_UNIT ( ) NAMED_UNIT ( * ) SI_UNIT ( .MILLI., .METRE. ) );
#673 = AXIS2_PLACEMENT_3D ( 'NONE', #735, #316, #81 ) ;
#674 = CARTESIAN_POINT ( 'NONE',  ( -26.50020271816266515, -1.500202718162660487, 0.9999999999999993339 ) ) ;
#675 = EDGE_LOOP ( 'NONE', ( #456, #66, #331, #541 ) ) ;
#676 = CARTESIAN_POINT ( 'NONE',  ( 9.208318687318021389, -23.82450139987802373, -1.000000000000000666 ) ) ;
#677 = CARTESIAN_POINT ( 'NONE',  ( 11.30184039615044078, -27.03931753433215235, -1.000000000000000666 ) ) ;
#678 = ORIENTED_EDGE ( 'NONE', *, *, #633, .T. ) ;
#679 = AXIS2_PLACEMENT_3D ( 'NONE', #194, #487, #605 ) ;
#680 = DIRECTION ( 'NONE',  ( -1.000000000000000000, 0.000000000000000000, 0.000000000000000000 ) ) ;
#681 = CYLINDRICAL_SURFACE ( 'NONE', #400, 26.50020271816266515 ) ;
#682 = VERTEX_POINT ( 'NONE', #615 ) ;
#683 = CYLINDRICAL_SURFACE ( 'NONE', #571, 30.10000000000000142 ) ;
#684 = FACE_OUTER_BOUND ( 'NONE', #138, .T. ) ;
#685 = VERTEX_POINT ( 'NONE', #627 ) ;
#686 = CARTESIAN_POINT ( 'NONE',  ( 10.15028919506822724, -22.97729109944883774, -1.000000000000000666 ) ) ;
#687 = CARTESIAN_POINT ( 'NONE',  ( -15.02426536691825376, -15.47671285650354100, -1.000000000000000666 ) ) ;
#688 = ORIENTED_EDGE ( 'NONE', *, *, #555, .T. ) ;
#689 = EDGE_CURVE ( 'NONE', #100, #707, #234, .T. ) ;
#690 =( NAMED_UNIT ( * ) SI_UNIT ( $, .STERADIAN. ) SOLID_ANGLE_UNIT ( ) );
#691 = DIRECTION ( 'NONE',  ( 1.000000000000000000, 0.000000000000000000, 0.000000000000000000 ) ) ;
#692 = VERTEX_POINT ( 'NONE', #568 ) ;
#693 = COORDINATED_UNIVERSAL_TIME_OFFSET ( 6, 0, .BEHIND. ) ;
#694 = EDGE_CURVE ( 'NONE', #749, #685, #769, .T. ) ;
#695 = CARTESIAN_POINT ( 'NONE',  ( 10.56146737890502330, -27.32547633261541620, -1.000000000000000666 ) ) ;
#696 = VERTEX_POINT ( 'NONE', #564 ) ;
#697 = CIRCLE ( 'NONE', #6, 26.50020271816266515 ) ;
#698 = DATE_AND_TIME ( #97, #543 ) ;
#699 = DIRECTION ( 'NONE',  ( -0.000000000000000000, -0.000000000000000000, -1.000000000000000000 ) ) ;
#700 = ORIENTED_EDGE ( 'NONE', *, *, #370, .T. ) ;
#701 = DATE_AND_TIME ( #750, #414 ) ;
#702 = DIRECTION ( 'NONE',  ( 1.000000000000000000, 0.000000000000000000, 0.000000000000000000 ) ) ;
#703 = AXIS2_PLACEMENT_3D ( 'NONE', #137, #186, #74 ) ;
#704 = EDGE_LOOP ( 'NONE', ( #245, #710, #366, #505 ) ) ;
#705 = EDGE_CURVE ( 'NONE', #707, #178, #93, .T. ) ;
#706 = FACE_OUTER_BOUND ( 'NONE', #275, .T. ) ;
#707 = VERTEX_POINT ( 'NONE', #552 ) ;
#708 = AXIS2_PLACEMENT_3D ( 'NONE', #284, #219, #649 ) ;
#709 = DIRECTION ( 'NONE',  ( -0.000000000000000000, 0.000000000000000000, -1.000000000000000000 ) ) ;
#710 = ORIENTED_EDGE ( 'NONE', *, *, #638, .F. ) ;
#711 = EDGE_CURVE ( 'NONE', #729, #749, #718, .T. ) ;
#712 = CARTESIAN_POINT ( 'NONE',  ( 19.40280760282733752, -19.54990635094792850, 0.9999999999999993339 ) ) ;
#713 = DIRECTION ( 'NONE',  ( -1.000000000000000000, 0.000000000000000000, 0.000000000000000000 ) ) ;
#714 = AXIS2_PLACEMENT_3D ( 'NONE', #214, #386, #447 ) ;
#715 = CARTESIAN_POINT ( 'NONE',  ( -12.42263749088425939, -20.86132702554728624, -1.000000000000000666 ) ) ;
#716 = DIRECTION ( 'NONE',  ( 1.000000000000000000, 0.000000000000000000, 0.000000000000000000 ) ) ;
#717 = ORIENTED_EDGE ( 'NONE', *, *, #508, .T. ) ;
#718 = CIRCLE ( 'NONE', #535, 5.980178705927092331 ) ;
#719 = DIRECTION ( 'NONE',  ( 0.000000000000000000, 0.000000000000000000, 1.000000000000000000 ) ) ;
#720 = CARTESIAN_POINT ( 'NONE',  ( -10.56146737890502507, -27.32547633261541975, -1.000000000000000666 ) ) ;
#721 = EDGE_CURVE ( 'NONE', #235, #324, #743, .T. ) ;
#722 = EDGE_LOOP ( 'NONE', ( #411, #328, #45, #480 ) ) ;
#723 = PLANE ( 'NONE',  #378 ) ;
#724 = DIRECTION ( 'NONE',  ( 0.000000000000000000, 0.000000000000000000, 1.000000000000000000 ) ) ;
#725 = VERTEX_POINT ( 'NONE', #85 ) ;
#726 = CC_DESIGN_PERSON_AND_ORGANIZATION_ASSIGNMENT ( #467, #338, ( #347 ) ) ;
#727 = DIRECTION ( 'NONE',  ( -1.000000000000000000, 0.000000000000000000, 0.000000000000000000 ) ) ;
#728 = DIRECTION ( 'NONE',  ( 0.3605150214592279800, -0.9327534075532784019, 0.000000000000000000 ) ) ;
#729 = VERTEX_POINT ( 'NONE', #454 ) ;
#730 = LINE ( 'NONE', #676, #99 ) ;
#731 = CIRCLE ( 'NONE', #608, 2.349999999999999645 ) ;
#732 = CARTESIAN_POINT ( 'NONE',  ( 15.02426536691825376, -15.47671285650354100, 0.9999999999999993339 ) ) ;
#733 = ORIENTED_EDGE ( 'NONE', *, *, #287, .F. ) ;
#734 = PRODUCT ( '98455A367_Internal Retaining Ring', '98455A367_Internal Retaining Ring', '', ( #355 ) ) ;
#735 = CARTESIAN_POINT ( 'NONE',  ( 11.40028919506822724, -22.97729109944883774, -1.000000000000000666 ) ) ;
#736 = APPROVAL ( #218, 'UNSPECIFIED' ) ;
#737 = DIRECTION ( 'NONE',  ( -1.000000000000000000, 0.000000000000000000, 0.000000000000000000 ) ) ;
#738 = ORIENTED_EDGE ( 'NONE', *, *, #481, .F. ) ;
#739 = CIRCLE ( 'NONE', #295, 5.980178705927092331 ) ;
#740 = CARTESIAN_POINT ( 'NONE',  ( -11.60794697117946761, -27.77166842511061162, 0.9999999999999993339 ) ) ;
#741 = DIRECTION ( 'NONE',  ( 0.000000000000000000, 0.000000000000000000, 1.000000000000000000 ) ) ;
#742 = ORIENTED_EDGE ( 'NONE', *, *, #711, .F. ) ;
#743 = LINE ( 'NONE', #135, #635 ) ;
#744 = CARTESIAN_POINT ( 'NONE',  ( 30.10000000000000142, -2.602085213965210642E-15, -1.000000000000000666 ) ) ;
#745 = ORIENTED_EDGE ( 'NONE', *, *, #115, .F. ) ;
#746 = EDGE_CURVE ( 'NONE', #100, #622, #326, .T. ) ;
#747 = DIRECTION ( 'NONE',  ( 1.000000000000000000, 0.000000000000000000, 0.000000000000000000 ) ) ;
#748 = DIRECTION ( 'NONE',  ( 1.000000000000000000, 0.000000000000000000, 0.000000000000000000 ) ) ;
#749 = VERTEX_POINT ( 'NONE', #380 ) ;
#750 = CALENDAR_DATE ( 2026, 8, 1 ) ;
#751 = AXIS2_PLACEMENT_3D ( 'NONE', #581, #440, #716 ) ;
#752 = DIRECTION ( 'NONE',  ( 1.000000000000000000, 0.000000000000000000, 0.000000000000000000 ) ) ;
#753 = ORIENTED_EDGE ( 'NONE', *, *, #382, .F. ) ;
#754 = DATE_AND_TIME ( #586, #644 ) ;
#755 = EDGE_CURVE ( 'NONE', #84, #630, #516, .T. ) ;
#756 = FACE_OUTER_BOUND ( 'NONE', #26, .T. ) ;
#757 = ORIENTED_EDGE ( 'NONE', *, *, #88, .T. ) ;
#758 = CIRCLE ( 'NONE', #660, 2.349999999999999645 ) ;
#759 = CARTESIAN_POINT ( 'NONE',  ( -30.10000000000000142, 1.084101651468323077E-15, -1.000000000000000666 ) ) ;
#760 = EDGE_LOOP ( 'NONE', ( #688, #290, #653, #336 ) ) ;
#761 = CALENDAR_DATE ( 2026, 8, 1 ) ;
#762 = DIRECTION ( 'NONE',  ( 0.000000000000000000, 0.000000000000000000, 1.000000000000000000 ) ) ;
#763 = DESIGN_CONTEXT ( 'detailed design', #373, 'design' ) ;
#764 = AXIS2_PLACEMENT_3D ( 'NONE', #189, #724, #437 ) ;
#765 = VERTEX_POINT ( 'NONE', #561 ) ;
#766 = APPROVAL_DATE_TIME ( #701, #232 ) ;
#767 = CYLINDRICAL_SURFACE ( 'NONE', #271, 26.50020271816266515 ) ;
#768 = VERTEX_POINT ( 'NONE', #265 ) ;
#769 = CIRCLE ( 'NONE', #582, 2.349999999999999645 ) ;
#770 = ADVANCED_FACE ( 'NONE', ( #272 ), #506, .T. ) ;
#771 = DIRECTION ( 'NONE',  ( 0.000000000000000000, 0.000000000000000000, 1.000000000000000000 ) ) ;
#772 = CYLINDRICAL_SURFACE ( 'NONE', #372, 0.7937499999999992895 ) ;
#773 = DIRECTION ( 'NONE',  ( -1.000000000000000000, 0.000000000000000000, 0.000000000000000000 ) ) ;
#774 = CARTESIAN_POINT ( 'NONE',  ( -1.734723475976807094E-15, -2.602085213965210642E-15, 0.9999999999999993339 ) ) ;
ENDSEC;
END-ISO-10303-21;
